<mxfile host="Electron" modified="2023-08-18T08:55:11.893Z" agent="Mozilla/5.0 (Windows NT 10.0; Win64; x64) AppleWebKit/537.36 (KHTML, like Gecko) draw.io/21.4.0 Chrome/112.0.5615.204 Electron/24.5.1 Safari/537.36" etag="Y-IouYjZpceL00shLgCd" version="21.4.0" type="device">
  <diagram id="C5RBs43oDa-KdzZeNtuy" name="Page-1">
    <mxGraphModel dx="1276" dy="606" grid="1" gridSize="10" guides="1" tooltips="1" connect="1" arrows="1" fold="1" page="1" pageScale="1" pageWidth="827" pageHeight="1169" math="0" shadow="0">
      <root>
        <mxCell id="WIyWlLk6GJQsqaUBKTNV-0" />
        <mxCell id="WIyWlLk6GJQsqaUBKTNV-1" parent="WIyWlLk6GJQsqaUBKTNV-0" />
        <mxCell id="Wk2OgN7bM0b2GtMZzkSs-2" value="" style="ellipse;fillColor=strokeColor;html=1;" parent="WIyWlLk6GJQsqaUBKTNV-1" vertex="1">
          <mxGeometry x="415" y="100" width="30" height="30" as="geometry" />
        </mxCell>
        <mxCell id="Wk2OgN7bM0b2GtMZzkSs-4" value="" style="endArrow=classic;html=1;rounded=0;entryX=0.498;entryY=0.02;entryDx=0;entryDy=0;entryPerimeter=0;" parent="WIyWlLk6GJQsqaUBKTNV-1" target="Wk2OgN7bM0b2GtMZzkSs-5" edge="1">
          <mxGeometry width="50" height="50" relative="1" as="geometry">
            <mxPoint x="429.5799999999999" y="130" as="sourcePoint" />
            <mxPoint x="430" y="160" as="targetPoint" />
          </mxGeometry>
        </mxCell>
        <mxCell id="Wk2OgN7bM0b2GtMZzkSs-5" value="Invoice&lt;br&gt;exists ?" style="html=1;whiteSpace=wrap;aspect=fixed;shape=isoRectangle;" parent="WIyWlLk6GJQsqaUBKTNV-1" vertex="1">
          <mxGeometry x="355" y="160" width="150" height="90" as="geometry" />
        </mxCell>
        <mxCell id="Wk2OgN7bM0b2GtMZzkSs-7" value="No" style="text;html=1;strokeColor=none;fillColor=none;align=center;verticalAlign=middle;whiteSpace=wrap;rounded=0;" parent="WIyWlLk6GJQsqaUBKTNV-1" vertex="1">
          <mxGeometry x="321" y="180" width="30" height="20" as="geometry" />
        </mxCell>
        <mxCell id="Wk2OgN7bM0b2GtMZzkSs-8" value="" style="ellipse;html=1;shape=endState;fillColor=strokeColor;" parent="WIyWlLk6GJQsqaUBKTNV-1" vertex="1">
          <mxGeometry x="415" y="707" width="30" height="30" as="geometry" />
        </mxCell>
        <mxCell id="Wk2OgN7bM0b2GtMZzkSs-9" value="Receivable&lt;br&gt;exists and&amp;nbsp;status is invoiced ?" style="html=1;whiteSpace=wrap;aspect=fixed;shape=isoRectangle;" parent="WIyWlLk6GJQsqaUBKTNV-1" vertex="1">
          <mxGeometry x="355" y="279" width="150" height="90" as="geometry" />
        </mxCell>
        <mxCell id="Wk2OgN7bM0b2GtMZzkSs-10" value="" style="endArrow=classic;html=1;rounded=0;exitX=0.5;exitY=0.979;exitDx=0;exitDy=0;exitPerimeter=0;" parent="WIyWlLk6GJQsqaUBKTNV-1" source="Wk2OgN7bM0b2GtMZzkSs-5" edge="1">
          <mxGeometry width="50" height="50" relative="1" as="geometry">
            <mxPoint x="429.76" y="249" as="sourcePoint" />
            <mxPoint x="430" y="281" as="targetPoint" />
          </mxGeometry>
        </mxCell>
        <mxCell id="Wk2OgN7bM0b2GtMZzkSs-12" value="Is receivable &lt;br&gt;pending&lt;br&gt;" style="html=1;whiteSpace=wrap;aspect=fixed;shape=isoRectangle;" parent="WIyWlLk6GJQsqaUBKTNV-1" vertex="1">
          <mxGeometry x="355" y="400" width="150" height="90" as="geometry" />
        </mxCell>
        <mxCell id="Wk2OgN7bM0b2GtMZzkSs-13" value="" style="endArrow=classic;html=1;rounded=0;exitX=0.5;exitY=0.979;exitDx=0;exitDy=0;exitPerimeter=0;" parent="WIyWlLk6GJQsqaUBKTNV-1" edge="1">
          <mxGeometry width="50" height="50" relative="1" as="geometry">
            <mxPoint x="429.66" y="488" as="sourcePoint" />
            <mxPoint x="429.66" y="521" as="targetPoint" />
          </mxGeometry>
        </mxCell>
        <mxCell id="Wk2OgN7bM0b2GtMZzkSs-14" value="Receivable&lt;br&gt;&amp;nbsp;cancelled" style="rounded=1;whiteSpace=wrap;html=1;" parent="WIyWlLk6GJQsqaUBKTNV-1" vertex="1">
          <mxGeometry x="526" y="517" width="120" height="60" as="geometry" />
        </mxCell>
        <mxCell id="Wk2OgN7bM0b2GtMZzkSs-15" value="Invoice&lt;br&gt;cancelled" style="rounded=1;whiteSpace=wrap;html=1;" parent="WIyWlLk6GJQsqaUBKTNV-1" vertex="1">
          <mxGeometry x="370" y="613" width="120" height="60" as="geometry" />
        </mxCell>
        <mxCell id="Wk2OgN7bM0b2GtMZzkSs-16" value="Receivable&lt;br&gt;pending" style="rounded=1;whiteSpace=wrap;html=1;" parent="WIyWlLk6GJQsqaUBKTNV-1" vertex="1">
          <mxGeometry x="370" y="520" width="120" height="60" as="geometry" />
        </mxCell>
        <mxCell id="Wk2OgN7bM0b2GtMZzkSs-17" value="" style="endArrow=classic;html=1;rounded=0;exitX=0.5;exitY=0.984;exitDx=0;exitDy=0;exitPerimeter=0;" parent="WIyWlLk6GJQsqaUBKTNV-1" source="Wk2OgN7bM0b2GtMZzkSs-9" edge="1">
          <mxGeometry width="50" height="50" relative="1" as="geometry">
            <mxPoint x="429.66" y="369" as="sourcePoint" />
            <mxPoint x="429.66" y="402" as="targetPoint" />
          </mxGeometry>
        </mxCell>
        <mxCell id="Wk2OgN7bM0b2GtMZzkSs-19" value="" style="endArrow=classic;html=1;rounded=0;exitX=0.5;exitY=0.979;exitDx=0;exitDy=0;exitPerimeter=0;" parent="WIyWlLk6GJQsqaUBKTNV-1" edge="1">
          <mxGeometry width="50" height="50" relative="1" as="geometry">
            <mxPoint x="429.76000000000005" y="580" as="sourcePoint" />
            <mxPoint x="429.76000000000005" y="613" as="targetPoint" />
          </mxGeometry>
        </mxCell>
        <mxCell id="Wk2OgN7bM0b2GtMZzkSs-20" value="" style="endArrow=classic;html=1;rounded=0;exitX=0.5;exitY=0.979;exitDx=0;exitDy=0;exitPerimeter=0;" parent="WIyWlLk6GJQsqaUBKTNV-1" edge="1">
          <mxGeometry width="50" height="50" relative="1" as="geometry">
            <mxPoint x="429.76000000000005" y="673" as="sourcePoint" />
            <mxPoint x="429.76000000000005" y="706" as="targetPoint" />
          </mxGeometry>
        </mxCell>
        <mxCell id="Wk2OgN7bM0b2GtMZzkSs-21" value="" style="endArrow=classic;html=1;rounded=0;exitX=0.994;exitY=0.498;exitDx=0;exitDy=0;exitPerimeter=0;entryX=0.5;entryY=0;entryDx=0;entryDy=0;edgeStyle=orthogonalEdgeStyle;" parent="WIyWlLk6GJQsqaUBKTNV-1" source="Wk2OgN7bM0b2GtMZzkSs-12" target="Wk2OgN7bM0b2GtMZzkSs-14" edge="1">
          <mxGeometry width="50" height="50" relative="1" as="geometry">
            <mxPoint x="450" y="480" as="sourcePoint" />
            <mxPoint x="500" y="430" as="targetPoint" />
          </mxGeometry>
        </mxCell>
        <mxCell id="Wk2OgN7bM0b2GtMZzkSs-22" value="No" style="text;html=1;strokeColor=none;fillColor=none;align=center;verticalAlign=middle;whiteSpace=wrap;rounded=0;" parent="WIyWlLk6GJQsqaUBKTNV-1" vertex="1">
          <mxGeometry x="505" y="420" width="30" height="20" as="geometry" />
        </mxCell>
        <mxCell id="Wk2OgN7bM0b2GtMZzkSs-23" value="" style="endArrow=classic;html=1;rounded=0;exitX=0.5;exitY=1;exitDx=0;exitDy=0;edgeStyle=orthogonalEdgeStyle;" parent="WIyWlLk6GJQsqaUBKTNV-1" source="Wk2OgN7bM0b2GtMZzkSs-14" edge="1">
          <mxGeometry width="50" height="50" relative="1" as="geometry">
            <mxPoint x="460" y="490" as="sourcePoint" />
            <mxPoint x="430" y="590" as="targetPoint" />
            <Array as="points">
              <mxPoint x="586" y="590" />
            </Array>
          </mxGeometry>
        </mxCell>
        <mxCell id="Wk2OgN7bM0b2GtMZzkSs-24" value="Yes" style="text;html=1;strokeColor=none;fillColor=none;align=center;verticalAlign=middle;whiteSpace=wrap;rounded=0;" parent="WIyWlLk6GJQsqaUBKTNV-1" vertex="1">
          <mxGeometry x="430" y="487" width="40" height="30" as="geometry" />
        </mxCell>
        <mxCell id="Wk2OgN7bM0b2GtMZzkSs-25" value="" style="endArrow=classic;html=1;rounded=0;exitX=0.002;exitY=0.498;exitDx=0;exitDy=0;exitPerimeter=0;edgeStyle=orthogonalEdgeStyle;" parent="WIyWlLk6GJQsqaUBKTNV-1" source="Wk2OgN7bM0b2GtMZzkSs-5" edge="1">
          <mxGeometry width="50" height="50" relative="1" as="geometry">
            <mxPoint x="460" y="490" as="sourcePoint" />
            <mxPoint x="430" y="690" as="targetPoint" />
            <Array as="points">
              <mxPoint x="300" y="205" />
              <mxPoint x="300" y="690" />
            </Array>
          </mxGeometry>
        </mxCell>
        <mxCell id="Wk2OgN7bM0b2GtMZzkSs-26" value="" style="endArrow=classic;html=1;rounded=0;exitX=0.999;exitY=0.499;exitDx=0;exitDy=0;exitPerimeter=0;edgeStyle=orthogonalEdgeStyle;" parent="WIyWlLk6GJQsqaUBKTNV-1" source="Wk2OgN7bM0b2GtMZzkSs-9" edge="1">
          <mxGeometry width="50" height="50" relative="1" as="geometry">
            <mxPoint x="470" y="570" as="sourcePoint" />
            <mxPoint x="430" y="690" as="targetPoint" />
            <Array as="points">
              <mxPoint x="660" y="324" />
              <mxPoint x="660" y="690" />
            </Array>
          </mxGeometry>
        </mxCell>
        <mxCell id="Wk2OgN7bM0b2GtMZzkSs-28" value="Yes" style="text;html=1;strokeColor=none;fillColor=none;align=center;verticalAlign=middle;whiteSpace=wrap;rounded=0;" parent="WIyWlLk6GJQsqaUBKTNV-1" vertex="1">
          <mxGeometry x="430" y="249" width="40" height="30" as="geometry" />
        </mxCell>
        <mxCell id="Wk2OgN7bM0b2GtMZzkSs-29" value="Yes" style="text;html=1;strokeColor=none;fillColor=none;align=center;verticalAlign=middle;whiteSpace=wrap;rounded=0;" parent="WIyWlLk6GJQsqaUBKTNV-1" vertex="1">
          <mxGeometry x="430" y="369" width="40" height="30" as="geometry" />
        </mxCell>
        <mxCell id="Wk2OgN7bM0b2GtMZzkSs-30" value="No" style="text;html=1;strokeColor=none;fillColor=none;align=center;verticalAlign=middle;whiteSpace=wrap;rounded=0;" parent="WIyWlLk6GJQsqaUBKTNV-1" vertex="1">
          <mxGeometry x="505" y="300" width="30" height="20" as="geometry" />
        </mxCell>
        <mxCell id="Wk2OgN7bM0b2GtMZzkSs-31" value="&lt;div style=&quot;text-align: left;&quot;&gt;&lt;b style=&quot;background-color: initial;&quot;&gt;&lt;font style=&quot;font-size: 18px;&quot;&gt;Invoice - c&lt;/font&gt;&lt;/b&gt;&lt;b style=&quot;background-color: initial; border-color: var(--border-color);&quot;&gt;&lt;font style=&quot;border-color: var(--border-color); font-size: 18px;&quot;&gt;ancel&lt;/font&gt;&lt;/b&gt;&lt;/div&gt;" style="text;html=1;strokeColor=none;fillColor=none;align=center;verticalAlign=middle;whiteSpace=wrap;rounded=0;" parent="WIyWlLk6GJQsqaUBKTNV-1" vertex="1">
          <mxGeometry x="40" y="50" width="180" height="30" as="geometry" />
        </mxCell>
      </root>
    </mxGraphModel>
  </diagram>
</mxfile>
